<svg xmlns="http://www.w3.org/2000/svg" width="15" height="16" viewBox="0 0 15 16" fill="none">
<path d="M12.5 15L12.1252 15.4685C12.3053 15.6126 12.552 15.6407 12.7599 15.5408C12.9678 15.4409 13.1 15.2307 13.1 15H12.5ZM12.5 1.00001H13.1V0.400011L12.5 0.400011L12.5 1.00001ZM2.5 1L2.5 0.4L1.9 0.399999V1H2.5ZM2.5 15H1.9C1.9 15.2307 2.03221 15.4409 2.24009 15.5408C2.44797 15.6407 2.69471 15.6126 2.87482 15.4685L2.5 15ZM7.5 11L7.87482 10.5315C7.65569 10.3562 7.34431 10.3562 7.12518 10.5315L7.5 11ZM13.1 15V1.00001H11.9V15H13.1ZM1.9 1V15H3.1V1H1.9ZM2.87482 15.4685L7.87482 11.4685L7.12518 10.5315L2.12518 14.5315L2.87482 15.4685ZM7.12518 11.4685L12.1252 15.4685L12.8748 14.5315L7.87482 10.5315L7.12518 11.4685ZM12.5 0.400011L2.5 0.4L2.5 1.6L12.5 1.60001L12.5 0.400011Z" fill="#D2D1D4"/>
</svg>